<svg width="1200" height="630" viewBox="0 0 1200 630" fill="none" xmlns="http://www.w3.org/2000/svg">
  <rect width="1200" height="630" fill="#0C0C0E"/>
  <g opacity="0.16">
    <path d="M0 64H1200" stroke="#F0EDE6" stroke-width="1"/>
    <path d="M0 128H1200" stroke="#F0EDE6" stroke-width="1"/>
    <path d="M0 192H1200" stroke="#F0EDE6" stroke-width="1"/>
    <path d="M0 256H1200" stroke="#F0EDE6" stroke-width="1"/>
    <path d="M0 320H1200" stroke="#F0EDE6" stroke-width="1"/>
    <path d="M0 384H1200" stroke="#F0EDE6" stroke-width="1"/>
    <path d="M0 448H1200" stroke="#F0EDE6" stroke-width="1"/>
    <path d="M0 512H1200" stroke="#F0EDE6" stroke-width="1"/>
    <path d="M0 576H1200" stroke="#F0EDE6" stroke-width="1"/>
    <path d="M64 0V630" stroke="#F0EDE6" stroke-width="1"/>
    <path d="M128 0V630" stroke="#F0EDE6" stroke-width="1"/>
    <path d="M192 0V630" stroke="#F0EDE6" stroke-width="1"/>
    <path d="M256 0V630" stroke="#F0EDE6" stroke-width="1"/>
    <path d="M320 0V630" stroke="#F0EDE6" stroke-width="1"/>
    <path d="M384 0V630" stroke="#F0EDE6" stroke-width="1"/>
    <path d="M448 0V630" stroke="#F0EDE6" stroke-width="1"/>
    <path d="M512 0V630" stroke="#F0EDE6" stroke-width="1"/>
    <path d="M576 0V630" stroke="#F0EDE6" stroke-width="1"/>
    <path d="M640 0V630" stroke="#F0EDE6" stroke-width="1"/>
    <path d="M704 0V630" stroke="#F0EDE6" stroke-width="1"/>
    <path d="M768 0V630" stroke="#F0EDE6" stroke-width="1"/>
    <path d="M832 0V630" stroke="#F0EDE6" stroke-width="1"/>
    <path d="M896 0V630" stroke="#F0EDE6" stroke-width="1"/>
    <path d="M960 0V630" stroke="#F0EDE6" stroke-width="1"/>
    <path d="M1024 0V630" stroke="#F0EDE6" stroke-width="1"/>
    <path d="M1088 0V630" stroke="#F0EDE6" stroke-width="1"/>
    <path d="M1152 0V630" stroke="#F0EDE6" stroke-width="1"/>
  </g>
  <circle cx="172" cy="130" r="220" fill="url(#paint0_radial)" opacity="0.85"/>
  <circle cx="1016" cy="120" r="120" stroke="#E88C40" stroke-opacity="0.22" stroke-width="1.5"/>
  <circle cx="1016" cy="120" r="88" stroke="#F0EDE6" stroke-opacity="0.12" stroke-width="1.5"/>
  <circle cx="1016" cy="120" r="52" stroke="#F0EDE6" stroke-opacity="0.12" stroke-width="1.5"/>
  <circle cx="958" cy="164" r="7" fill="#E88C40"/>
  <circle cx="1052" cy="66" r="7" fill="#E88C40"/>
  <circle cx="1082" cy="148" r="7" fill="#E88C40"/>
  <rect x="82" y="82" width="1036" height="466" rx="22" fill="url(#paint1_linear)" stroke="#2A2A30" stroke-width="1.5"/>
  <rect x="104" y="104" width="992" height="422" rx="16" stroke="white" stroke-opacity="0.06" stroke-width="1.5"/>
  <path d="M82 483H1118" stroke="#1E1E24" stroke-width="1.5"/>
  <path d="M82 154H386" stroke="#E88C40" stroke-width="2"/>
  <path d="M468 483H1118" stroke="#2A2A30" stroke-width="1.5"/>
  <text x="120" y="142" fill="#E88C40" font-family="'JetBrains Mono', monospace" font-size="21" letter-spacing="2.8">&gt; HEAD OF SECURITY · SECURITY RESEARCHER · CTF PLAYER</text>
  <text x="120" y="266" fill="#F0EDE6" font-family="'Syne', sans-serif" font-size="88" font-weight="800" letter-spacing="-3.5">Daniel Púa</text>
  <text x="120" y="314" fill="#E88C40" font-family="'JetBrains Mono', monospace" font-size="28">@devploit</text>
  <text x="120" y="392" fill="#AAA79F" font-family="'Syne', sans-serif" font-size="34">Real-world infosec, no hype.</text>
  <text x="120" y="438" fill="#E88C40" font-family="'Syne', sans-serif" font-size="34">Never trust a fox.</text>
  <g>
    <rect x="120" y="470" width="296" height="34" rx="17" fill="#131317" stroke="#7A4A20" stroke-width="1.5"/>
    <text x="142" y="492" fill="#E88C40" font-family="'JetBrains Mono', monospace" font-size="16">Head of Security @ Freepik</text>
  </g>
  <g>
    <rect x="432" y="470" width="242" height="34" rx="17" fill="#131317" stroke="#7A4A20" stroke-width="1.5"/>
    <text x="454" y="492" fill="#E88C40" font-family="'JetBrains Mono', monospace" font-size="16">Security Researcher</text>
  </g>
  <g opacity="0.95">
    <text x="860" y="325" fill="#8A867D" font-family="'JetBrains Mono', monospace" font-size="18">~/devploit</text>
    <text x="860" y="360" fill="#AAA79F" font-family="'JetBrains Mono', monospace" font-size="18">offsec / appsec / research</text>
    <text x="860" y="395" fill="#AAA79F" font-family="'JetBrains Mono', monospace" font-size="18">tools / posts / contact</text>
  </g>
  <defs>
    <radialGradient id="paint0_radial" cx="0" cy="0" r="1" gradientUnits="userSpaceOnUse" gradientTransform="translate(172 130) rotate(90) scale(220)">
      <stop stop-color="#E88C40" stop-opacity="0.34"/>
      <stop offset="1" stop-color="#E88C40" stop-opacity="0"/>
    </radialGradient>
    <linearGradient id="paint1_linear" x1="600" y1="82" x2="600" y2="548" gradientUnits="userSpaceOnUse">
      <stop stop-color="#18181C"/>
      <stop offset="1" stop-color="#121216"/>
    </linearGradient>
  </defs>
</svg>
